# xmcd
#
# Track frame offsets: 
#        150
#        17590
#        41000
#        64684
#        76780
#        100419
#        115181
#        128623
#        149399
#        166462
#        183986
#        193542
#
# Disc length: 2787 seconds
#
# Revision: 1
# Processed by: cddbd v1.5.2PL0 Copyright (c) Steve Scherf et al.
# Submitted via: ExactAudioCopy v1.3
#
DISCID=990ae10c
DTITLE=Various Artist - Blues Revue sampler, Sep-Oct 2010
DYEAR=2010
DGENRE=Blues
TTITLE0=Jimmy Thackery and The Drivers - Star spangled banner
TTITLE1=Karen Lovely - Never felt no blues
TTITLE2=Mark Nomad - Heirs to the throne
TTITLE3=Matt Hill - 30 years old
TTITLE4=The Chris O'Leary Band - Dress blues
TTITLE5=Willie May - I got the blues today
TTITLE6=Ryan McGarvey - Texas special
TTITLE7=Pryor Baird and The Deacons - Little red wagon
TTITLE8=Cathy Lemons and Johnny Ace - Love like a fire
TTITLE9=Eden Brent - Leave me alone
TTITLE10=Lee Pons - The voodoo boogie
TTITLE11=Harper - We stand together
EXTD=
EXTT0=
EXTT1=
EXTT2=
EXTT3=
EXTT4=
EXTT5=
EXTT6=
EXTT7=
EXTT8=
EXTT9=
EXTT10=
EXTT11=
PLAYORDER=
